<?xml version="1.0" encoding="iso-8859-1"?>
<!-- Generator: Adobe Illustrator 19.0.0, SVG Export Plug-In . SVG Version: 6.00 Build 0)  -->
<svg version="1.1" id="Capa_1" xmlns="http://www.w3.org/2000/svg" xmlns:xlink="http://www.w3.org/1999/xlink" x="0px" y="0px"
	 viewBox="0 0 59 59" style="enable-background:new 0 0 59 59;" xml:space="preserve">
<path style="fill:#FFFFFF;" d="M42.245,57.876C40.987,57.216,35.5,53.776,35.5,44V34h-19v10c0,9.709-6.28,13.204-7.712,13.874
	C8.723,57.905,8.749,58,8.821,58H42.21C42.28,58,42.307,57.908,42.245,57.876z"/>
<path style="fill:#745A49;" d="M42.245,57.876C40.987,57.216,35.5,53.776,35.5,44V34h-19v10c0,9.709-6.28,13.204-7.712,13.874
	C8.723,57.905,8.749,58,8.821,58H42.21C42.28,58,42.307,57.908,42.245,57.876z"/>
<path style="fill:#E6E6E6;" d="M15,21.958c2.394,3.665,4.033,7.759,4.853,12.042h10.616c2.084-1.705,3.638-4.057,4.209-6.778
	c0,0-0.087-0.051-0.16-0.094v0c-4.498-2.626-8.323-6.263-11.171-10.624l-1.641-2.512c-0.26-0.398-0.794-0.51-1.193-0.25l-6.903,4.51
	c-0.398,0.26-0.51,0.794-0.25,1.193L15,21.958z"/>
<path style="fill:#BC9D6F;" d="M15,21.958c0.788,1.206,1.486,2.462,2.11,3.752l-3.062,2c-0.272,0.178-0.637,0.101-0.814-0.171
	l-2.33-3.567c-0.178-0.272-0.101-0.637,0.171-0.814l3.301-2.157L15,21.958z"/>
<path style="fill:#BC9D6F;" d="M36.14,4.159c-1.362,1.05-2.471,2.368-3.43,3.796c-2.51,3.738-9.205,7.776-9.683,8.061l0.319,0.489
	c0.991,1.518,2.108,2.941,3.323,4.271c0.574-0.42,1.238-0.932,1.902-1.457c1.901-1.505,3.495-3.339,4.892-5.321
	C37.2,8.694,43.941,5.751,46.3,4.846c0.529-0.203,1.088-0.293,1.654-0.265l4.168,0.207c1.245,0.062,2.313-0.906,2.375-2.151
	s-0.906-2.313-2.151-2.375l-4.978-0.247C42.787-0.213,38.687,2.196,36.14,4.159z"/>
<path style="fill:#3D3028;" d="M28.5,59c-0.552,0-1-0.448-1-1v-7c0-0.552,0.448-1,1-1s1,0.448,1,1v7C29.5,58.552,29.052,59,28.5,59z
	"/>
<path style="fill:#3D3028;" d="M23.5,59c-0.552,0-1-0.448-1-1v-3c0-0.552,0.448-1,1-1s1,0.448,1,1v3C24.5,58.552,24.052,59,23.5,59z
	"/>
<path style="fill:#3D3028;" d="M33.5,59c-0.552,0-1-0.448-1-1v-4c0-0.552,0.448-1,1-1s1,0.448,1,1v4C34.5,58.552,34.052,59,33.5,59z
	"/>
<path style="fill:#3D3028;" d="M18.5,59c-0.552,0-1-0.448-1-1v-4c0-0.552,0.448-1,1-1s1,0.448,1,1v4C19.5,58.552,19.052,59,18.5,59z
	"/>
<rect x="4.5" y="57" style="fill:#3D3028;" width="42" height="2"/>
<path style="fill:#3D3028;" d="M26.5,37c0,0.552,0.448,1,1,1s1-0.448,1-1v-3h-2V37z"/>
<path style="fill:#3D3028;" d="M30.5,38c0,0.552,0.448,1,1,1s1-0.448,1-1v-4h-2V38z"/>
<path style="fill:#949493;" d="M29.881,23.862c-0.1,0.121-0.181,0.258-0.215,0.422c-0.473,2.256-1.772,4.17-3.657,5.39
	c-1.884,1.218-4.168,1.626-6.438,1.152c-0.166-0.035-0.326-0.014-0.479,0.031c0.193,0.659,0.359,1.326,0.511,1.996
	c0.607,0.102,1.215,0.167,1.818,0.167c2.017,0,3.976-0.568,5.674-1.666c2.209-1.429,3.756-3.627,4.412-6.214
	C30.953,24.729,30.409,24.305,29.881,23.862z"/>
<g>
</g>
<g>
</g>
<g>
</g>
<g>
</g>
<g>
</g>
<g>
</g>
<g>
</g>
<g>
</g>
<g>
</g>
<g>
</g>
<g>
</g>
<g>
</g>
<g>
</g>
<g>
</g>
<g>
</g>
</svg>
