<?xml version="1.0" encoding="iso-8859-1"?>
<!-- Generator: Adobe Illustrator 18.0.0, SVG Export Plug-In . SVG Version: 6.00 Build 0)  -->
<!DOCTYPE svg PUBLIC "-//W3C//DTD SVG 1.1//EN" "http://www.w3.org/Graphics/SVG/1.1/DTD/svg11.dtd">
<svg version="1.1" id="Capa_1" xmlns="http://www.w3.org/2000/svg" xmlns:xlink="http://www.w3.org/1999/xlink" x="0px" y="0px"
	 viewBox="0 0 112.198 112.198" style="enable-background:new 0 0 112.198 112.198;" xml:space="preserve">
<g>
	<circle style="fill:#04CC47;" cx="56.099" cy="56.1" r="56.098"/>
	<g>
		<g>
			<path style="fill:#FFFFFF;" d="M84.66,53.989c-2.056-7.024-7.104-12.998-13.415-16.617c-7.209-4.147-16.257-4.569-24.002-1.701
				c-3.918,1.567-7.457,4.018-10.365,7.071c-0.05-6.283-0.004-12.569-0.027-18.855c0.009-1.222-0.74-2.438-1.89-2.894
				c-1.328-0.535-2.88-0.523-4.197,0.039c-1.11,0.48-1.801,1.662-1.821,2.851c-0.06,6.386,0.089,12.773,0.05,19.158
				c-0.039,6.916,0.089,13.827,0.057,20.744c0.159,3.9,1.037,7.789,2.664,11.343c2.881,6.15,8.017,11.219,14.215,13.994
				c5.22,2.222,11.093,3.122,16.691,1.982c6.854-1.198,13.142-5.082,17.369-10.593c3.991-5.12,5.963-11.635,6.033-18.086
				C85.93,59.573,85.487,56.725,84.66,53.989z M77.89,65.82c-0.649,4.556-2.877,8.867-6.213,12.039
				c-2.92,2.928-6.792,4.866-10.877,5.501c-4.71,0.78-9.694-0.168-13.785-2.637c-2.158-1.324-4.057-3.054-5.662-5.009
				c-5.661-6.973-6.001-17.743-0.752-25.034c1.691-2.241,3.679-4.303,6.088-5.777c2.545-1.603,5.467-2.568,8.451-2.915
				c4.979-0.582,10.204,0.661,14.274,3.624c3.047,2.286,5.579,5.326,7.077,8.844C77.95,58.025,78.531,62.001,77.89,65.82z"/>
			<path style="fill:#FFFFFF;" d="M45.914,56.498c-1.964,0.042-4.052,0.926-5.066,2.686c-0.665,1.183-1.07,2.579-0.848,3.94
				c0.27,1.497,0.91,3.006,2.145,3.954c1.671,1.281,4.041,1.687,5.979,0.774c1.951-0.763,3.122-2.743,3.401-4.751
				c0.214-1.501-0.24-3.064-1.098-4.297C49.425,57.345,47.643,56.578,45.914,56.498z"/>
		</g>
	</g>
</g>
<g>
</g>
<g>
</g>
<g>
</g>
<g>
</g>
<g>
</g>
<g>
</g>
<g>
</g>
<g>
</g>
<g>
</g>
<g>
</g>
<g>
</g>
<g>
</g>
<g>
</g>
<g>
</g>
<g>
</g>
</svg>
