<?xml version="1.0" encoding="iso-8859-1"?>
<!-- Generator: Adobe Illustrator 18.0.0, SVG Export Plug-In . SVG Version: 6.00 Build 0)  -->
<!DOCTYPE svg PUBLIC "-//W3C//DTD SVG 1.1//EN" "http://www.w3.org/Graphics/SVG/1.1/DTD/svg11.dtd">
<svg version="1.1" id="Capa_1" xmlns="http://www.w3.org/2000/svg" xmlns:xlink="http://www.w3.org/1999/xlink" x="0px" y="0px"
	 viewBox="0 0 112.196 112.196" style="enable-background:new 0 0 112.196 112.196;" xml:space="preserve">
<g>
	<g>
		<circle style="fill:#4176FA;" cx="56.098" cy="56.098" r="56.098"/>
	</g>
	<g>
		<path style="fill:#F1F2F2;" d="M76.209,46.341c-16.203,0-16.224,16.142-16.224,16.225c0,0-1.11,16.162,16.224,16.162
			c0,0,14.456,0.822,14.456-11.248h-7.423c0,0,0.246,4.544-6.786,4.544c0,0-7.423,0.494-7.423-7.341h21.879
			C90.912,64.683,93.318,46.341,76.209,46.341z M68.95,59.028c0,0,0.905-6.498,7.424-6.498c6.539,0,6.436,6.498,6.436,6.498H68.95z
			 M50.404,54.875c0,0,6.436-0.473,6.436-8.04c0-7.546-5.264-11.248-11.947-11.248H22.91v42.256h21.981
			c0,0,13.428,0.412,13.428-12.481C58.32,65.362,58.896,54.875,50.404,54.875z M32.596,43.092h12.296c0,0,2.982,0,2.982,4.4
			s-1.748,5.038-3.743,5.038H32.596V43.092z M44.276,70.338h-11.68v-11.31h12.296c0,0,4.463-0.041,4.442,5.819
			C49.334,69.783,46.024,70.297,44.276,70.338z M67.12,38.075v5.203h17.438v-5.203H67.12z"/>
	</g>
</g>
<g>
</g>
<g>
</g>
<g>
</g>
<g>
</g>
<g>
</g>
<g>
</g>
<g>
</g>
<g>
</g>
<g>
</g>
<g>
</g>
<g>
</g>
<g>
</g>
<g>
</g>
<g>
</g>
<g>
</g>
</svg>
