<?xml version="1.0" encoding="iso-8859-1"?>
<!-- Generator: Adobe Illustrator 19.0.0, SVG Export Plug-In . SVG Version: 6.00 Build 0)  -->
<svg version="1.1" id="Capa_1" xmlns="http://www.w3.org/2000/svg" xmlns:xlink="http://www.w3.org/1999/xlink" x="0px" y="0px"
	 viewBox="0 0 58.349 58.349" style="enable-background:new 0 0 58.349 58.349;" xml:space="preserve">
<path style="fill:#2A4F24;" d="M55.175,30.175h-1h-50H4.06H3.175c-1.657,0-3,1.343-3,3s1.343,3,3,3H4.06h0.115h50h1
	c1.657,0,3-1.343,3-3S56.832,30.175,55.175,30.175z"/>
<rect x="25.175" y="5.175" style="fill:#2A4F24;" width="8" height="5.342"/>
<circle style="fill:#57823B;" cx="29.175" cy="33.175" r="25"/>
<path style="fill:#80BC76;" d="M26.179,36.628L26.179,36.628c-1.621-1.637-1.615-4.276,0.015-5.905l2.772-2.772
	c0.119-0.119,0.311-0.119,0.429,0l2.745,2.745c1.64,1.64,1.634,4.302-0.014,5.934l-0.027,0.027
	C30.456,38.284,27.805,38.271,26.179,36.628z"/>
<path style="fill:#152814;" d="M35.621,5.175H22.729c-0.306,0-0.554-0.248-0.554-0.554V0.729c0-0.306,0.248-0.554,0.554-0.554
	h12.892c0.306,0,0.554,0.248,0.554,0.554v3.892C36.175,4.927,35.927,5.175,35.621,5.175z"/>
<path style="fill:#949493;" d="M1.174,31.175c-0.495,0-0.926-0.367-0.991-0.872c-0.004-0.032-0.102-0.799-0.167-2.072
	c-0.027-0.552,0.396-1.021,0.948-1.049c0.559-0.021,1.021,0.396,1.05,0.948c0.06,1.187,0.152,1.91,0.153,1.917
	c0.07,0.547-0.316,1.049-0.864,1.12C1.26,31.172,1.216,31.175,1.174,31.175z M1.001,25.179c-0.015,0-0.029,0-0.044-0.001
	c-0.552-0.023-0.979-0.49-0.956-1.042c0.028-0.65,0.072-1.335,0.136-2.045c0.05-0.55,0.541-0.947,1.086-0.906
	c0.55,0.05,0.956,0.536,0.906,1.086c-0.062,0.677-0.104,1.331-0.13,1.952C1.976,24.759,1.533,25.179,1.001,25.179z M1.705,19.219
	c-0.065,0-0.133-0.006-0.199-0.02c-0.542-0.11-0.892-0.637-0.782-1.179c0.14-0.686,0.299-1.363,0.476-2.011
	c0.145-0.533,0.696-0.847,1.227-0.703C2.959,15.451,3.273,16,3.129,16.533c-0.171,0.629-0.318,1.26-0.444,1.884
	C2.588,18.892,2.171,19.219,1.705,19.219z M3.494,13.502c-0.136,0-0.274-0.028-0.407-0.088c-0.505-0.226-0.73-0.817-0.505-1.321
	c0.29-0.647,0.608-1.277,0.946-1.87c0.273-0.481,0.884-0.648,1.364-0.375c0.479,0.273,0.647,0.884,0.374,1.364
	c-0.306,0.538-0.595,1.109-0.858,1.698C4.241,13.281,3.877,13.502,3.494,13.502z M6.731,8.483c-0.241,0-0.483-0.087-0.676-0.263
	C5.648,7.847,5.621,7.214,5.994,6.807c0.481-0.525,0.997-1.021,1.53-1.472c0.422-0.356,1.053-0.303,1.409,0.118
	C9.29,5.875,9.237,6.506,8.815,6.863C8.347,7.259,7.893,7.695,7.469,8.159C7.271,8.373,7.002,8.483,6.731,8.483z M11.519,4.944
	c-0.374,0-0.732-0.21-0.904-0.57c-0.237-0.499-0.025-1.095,0.474-1.333c0.626-0.298,1.286-0.564,1.961-0.791
	c0.524-0.173,1.091,0.106,1.267,0.63c0.176,0.523-0.106,1.09-0.63,1.266c-0.6,0.201-1.185,0.437-1.738,0.7
	C11.81,4.913,11.663,4.944,11.519,4.944z M17.259,3.342c-0.5,0-0.932-0.374-0.992-0.881c-0.065-0.549,0.326-1.046,0.875-1.112
	c0.669-0.08,1.367-0.132,2.073-0.157c0.013,0,0.024,0,0.036,0c0.536,0,0.979,0.425,0.998,0.965c0.02,0.552-0.412,1.015-0.964,1.034
	c-0.651,0.022-1.293,0.071-1.907,0.145C17.338,3.339,17.298,3.342,17.259,3.342z"/>
<path style="fill:#949493;" d="M57.176,31.175c-0.042,0-0.086-0.003-0.129-0.008c-0.548-0.071-0.935-0.572-0.864-1.12
	c0.001-0.007,0.094-0.73,0.153-1.917c0.028-0.552,0.51-0.97,1.05-0.948c0.552,0.028,0.976,0.498,0.948,1.049
	c-0.065,1.272-0.163,2.04-0.167,2.072C58.102,30.807,57.671,31.175,57.176,31.175z M57.349,25.179c-0.532,0-0.975-0.42-0.998-0.957
	c-0.026-0.621-0.068-1.274-0.13-1.952c-0.05-0.55,0.356-1.036,0.906-1.086c0.55-0.039,1.036,0.356,1.086,0.906
	c0.063,0.71,0.107,1.395,0.136,2.045c0.023,0.552-0.404,1.019-0.956,1.042C57.378,25.178,57.363,25.179,57.349,25.179z
	 M56.644,19.219c-0.466,0-0.883-0.327-0.979-0.801c-0.126-0.625-0.273-1.255-0.444-1.884c-0.145-0.533,0.17-1.083,0.703-1.227
	c0.526-0.145,1.081,0.169,1.227,0.703c0.177,0.648,0.336,1.325,0.476,2.011c0.109,0.542-0.24,1.069-0.782,1.179
	C56.777,19.212,56.71,19.219,56.644,19.219z M54.855,13.502c-0.383,0-0.747-0.221-0.914-0.592c-0.264-0.589-0.553-1.161-0.858-1.698
	c-0.273-0.48-0.105-1.09,0.374-1.364c0.479-0.273,1.09-0.106,1.364,0.375c0.338,0.593,0.656,1.223,0.946,1.87
	c0.226,0.504,0,1.096-0.505,1.321C55.131,13.474,54.991,13.502,54.855,13.502z M51.618,8.483c-0.271,0-0.54-0.109-0.737-0.324
	c-0.425-0.463-0.878-0.899-1.347-1.296c-0.422-0.356-0.475-0.987-0.118-1.409c0.357-0.421,0.987-0.475,1.409-0.118
	c0.533,0.451,1.049,0.946,1.53,1.472c0.373,0.407,0.346,1.04-0.062,1.413C52.102,8.396,51.859,8.483,51.618,8.483z M46.83,4.944
	c-0.144,0-0.29-0.031-0.429-0.097c-0.554-0.263-1.139-0.499-1.738-0.7c-0.523-0.176-0.806-0.743-0.63-1.266
	c0.177-0.523,0.744-0.803,1.267-0.63c0.675,0.227,1.335,0.492,1.961,0.791c0.499,0.237,0.711,0.833,0.474,1.333
	C47.562,4.734,47.204,4.944,46.83,4.944z M41.091,3.342c-0.039,0-0.079-0.002-0.119-0.007c-0.614-0.073-1.256-0.122-1.907-0.145
	c-0.552-0.02-0.983-0.482-0.964-1.034s0.444-0.985,1.034-0.965c0.706,0.025,1.404,0.078,2.073,0.157
	c0.549,0.065,0.94,0.563,0.875,1.112C42.022,2.968,41.591,3.342,41.091,3.342z"/>
<g>
	<path style="fill:#80BC76;" d="M29.175,53.175c-8.481,0-16.064-5.397-18.87-13.431c0,0,0-0.002-0.001-0.003l1.888-0.662
		c0.204,0.58,0.434,1.143,0.681,1.673l-0.002,0c2.932,6.301,9.275,10.422,16.305,10.422s13.373-4.121,16.305-10.422l-0.002,0
		c0.247-0.53,0.477-1.093,0.681-1.673l1.888,0.662c-0.001,0.001-0.001,0.001-0.001,0.002l0,0c0,0,0,0,0,0
		C45.239,47.777,37.656,53.175,29.175,53.175z"/>
	<path style="fill:#80BC76;" d="M46.837,29.735c-0.216-1.084-0.533-2.158-0.944-3.19l0.009-0.003
		c-2.676-6.746-9.262-11.367-16.727-11.367s-14.051,4.621-16.727,11.367l0.009,0.003c-0.411,1.032-0.729,2.105-0.944,3.19
		L9.551,29.35c1.824-9.373,10.078-16.175,19.624-16.175s17.8,6.802,19.624,16.175L46.837,29.735z"/>
</g>
<path style="fill:#57823B;" d="M24.175,2.175c0,0.552,0.447,1,1,1s1-0.448,1-1v-2h-2V2.175z"/>
<path style="fill:#57823B;" d="M28.175,2.175c0,0.552,0.447,1,1,1s1-0.448,1-1v-2h-2V2.175z"/>
<path style="fill:#57823B;" d="M32.175,2.175c0,0.552,0.447,1,1,1s1-0.448,1-1v-2h-2V2.175z"/>
<g>
</g>
<g>
</g>
<g>
</g>
<g>
</g>
<g>
</g>
<g>
</g>
<g>
</g>
<g>
</g>
<g>
</g>
<g>
</g>
<g>
</g>
<g>
</g>
<g>
</g>
<g>
</g>
<g>
</g>
</svg>
