<?xml version="1.0" encoding="iso-8859-1"?>
<!-- Generator: Adobe Illustrator 19.0.0, SVG Export Plug-In . SVG Version: 6.00 Build 0)  -->
<svg version="1.1" id="Capa_1" xmlns="http://www.w3.org/2000/svg" xmlns:xlink="http://www.w3.org/1999/xlink" x="0px" y="0px"
	 viewBox="0 0 54.989 54.989" style="enable-background:new 0 0 54.989 54.989;" xml:space="preserve">
<circle style="fill:#88C057;" cx="23.345" cy="31.989" r="13"/>
<path style="fill:#659C35;" d="M40.995,5.5l-6.622,19.627c1.243,1.993,1.973,4.34,1.973,6.862c0,4.639-2.438,8.699-6.094,11h10.743
	h12.649L40.995,5.5z"/>
<path style="fill:#C6E2F7;" d="M16.72,5.75c1.444,0,2.625,1.294,2.625,2.875v0c0,1.581-1.181,2.875-2.625,2.875H5.47H5.095
	c-2.071,0-3.75-1.839-3.75-4.107s1.679-4.107,3.75-4.107c0,0,1.734-3.286,6-3.286c2.672,0,5.25,1.489,5.25,5.75H16.72z"/>
<line style="fill:none;stroke:#6C4127;stroke-width:2;stroke-linecap:round;stroke-miterlimit:10;" x1="20.345" y1="36.989" x2="23.345" y2="39.989"/>
<line style="fill:none;stroke:#6C4127;stroke-width:2;stroke-linecap:round;stroke-miterlimit:10;" x1="26.345" y1="36.989" x2="23.345" y2="39.989"/>
<line style="fill:none;stroke:#6C4127;stroke-width:2;stroke-linecap:round;stroke-miterlimit:10;" x1="23.345" y1="39.989" x2="23.345" y2="53.989"/>
<line style="fill:none;stroke:#6C4127;stroke-width:2;stroke-linecap:round;stroke-miterlimit:10;" x1="38.345" y1="36.989" x2="41.345" y2="39.989"/>
<line style="fill:none;stroke:#6C4127;stroke-width:2;stroke-linecap:round;stroke-miterlimit:10;" x1="44.345" y1="36.989" x2="41.345" y2="39.989"/>
<line style="fill:none;stroke:#6C4127;stroke-width:2;stroke-linecap:round;stroke-miterlimit:10;" x1="41.345" y1="39.989" x2="41.345" y2="53.989"/>
<g>
</g>
<g>
</g>
<g>
</g>
<g>
</g>
<g>
</g>
<g>
</g>
<g>
</g>
<g>
</g>
<g>
</g>
<g>
</g>
<g>
</g>
<g>
</g>
<g>
</g>
<g>
</g>
<g>
</g>
</svg>
