<?xml version="1.0" encoding="iso-8859-1"?>
<!-- Generator: Adobe Illustrator 18.0.0, SVG Export Plug-In . SVG Version: 6.00 Build 0)  -->
<!DOCTYPE svg PUBLIC "-//W3C//DTD SVG 1.1//EN" "http://www.w3.org/Graphics/SVG/1.1/DTD/svg11.dtd">
<svg version="1.1" id="Capa_1" xmlns="http://www.w3.org/2000/svg" xmlns:xlink="http://www.w3.org/1999/xlink" x="0px" y="0px"
	 viewBox="0 0 112.195 112.195" style="enable-background:new 0 0 112.195 112.195;" xml:space="preserve">
<g>
	<path id="XMLID_59_" style="fill:#D31F27;" d="M112.195,56.097c0,30.983-25.114,56.099-56.097,56.099
		C25.115,112.195,0,87.08,0,56.097C0,25.117,25.115,0,56.099,0C87.081,0,112.195,25.117,112.195,56.097z"/>
	<g id="lastfm">
		<g>
			<path style="fill:#FFFFFF;" d="M80.487,52.141c-6.203-1.849-8.412-2.874-8.412-4.922c0-3.416,4.937-4.702,5.497-4.79
				c3.139-0.465,7.072,1.173,8.34,4.99l8.44-2.553c-2.65-8.385-10.487-12.099-18.099-10.975
				c-7.788,1.146-12.782,6.786-12.782,13.327c0,8.8,8.244,11.332,14.43,13.181c6.509,1.944,8.401,2.637,8.401,5.023
				c0,2.016-1.196,3.895-4.374,4.735c-6.32,1.664-14.586-0.672-16.887-4.523c-1.351-2.261-2.733-5.203-4.001-8.53
				c-3.766-9.866-8.926-23.371-23.764-23.371c-7.731,0-21.851,3.743-21.851,24.868c0,8.744,7.481,19.613,21.578,19.613
				c11.829,0,13.888-4.32,14.358-5.085l-3.861-7.555c-0.098,0.138-3.692,4.936-10.497,4.936c-11.107,0-12.735-11.776-12.735-11.909
				c0-10.967,4.687-16.238,13.008-16.238c8.094,0,11.382,7.04,15.48,17.759c1.397,3.683,2.922,6.966,4.65,9.865
				c3.657,6.116,11.55,8.091,19.473,8.091c2.418,0,5.2,0.137,7.351-0.432c7.093-1.878,10.905-6.178,10.905-12.224
				C95.137,56.218,86.852,54.044,80.487,52.141z"/>
		</g>
	</g>
</g>
<g>
</g>
<g>
</g>
<g>
</g>
<g>
</g>
<g>
</g>
<g>
</g>
<g>
</g>
<g>
</g>
<g>
</g>
<g>
</g>
<g>
</g>
<g>
</g>
<g>
</g>
<g>
</g>
<g>
</g>
</svg>
