<?xml version="1.0" encoding="iso-8859-1"?>
<!-- Generator: Adobe Illustrator 16.0.0, SVG Export Plug-In . SVG Version: 6.00 Build 0)  -->
<!DOCTYPE svg PUBLIC "-//W3C//DTD SVG 1.1//EN" "http://www.w3.org/Graphics/SVG/1.1/DTD/svg11.dtd">
<svg version="1.1" id="Capa_1" xmlns="http://www.w3.org/2000/svg" xmlns:xlink="http://www.w3.org/1999/xlink" x="0px" y="0px"
	 width="485.211px" height="485.211px" viewBox="0 0 485.211 485.211" style="enable-background:new 0 0 485.211 485.211;"
	 xml:space="preserve">
<g>
	<path d="M485.211,363.906c0,10.637-2.992,20.498-7.785,29.174L324.225,221.67l151.54-132.584
		c5.895,9.355,9.446,20.344,9.446,32.219V363.906z M242.606,252.793l210.863-184.5c-8.653-4.737-18.397-7.642-28.908-7.642H60.651
		c-10.524,0-20.271,2.905-28.889,7.642L242.606,252.793z M301.393,241.631l-48.809,42.734c-2.855,2.487-6.41,3.729-9.978,3.729
		c-3.57,0-7.125-1.242-9.98-3.729l-48.82-42.736L28.667,415.23c9.299,5.834,20.197,9.329,31.983,9.329h363.911
		c11.784,0,22.687-3.495,31.983-9.329L301.393,241.631z M9.448,89.085C3.554,98.44,0,109.429,0,121.305v242.602
		c0,10.637,2.978,20.498,7.789,29.174l153.183-171.44L9.448,89.085z"/>
</g>
<g>
</g>
<g>
</g>
<g>
</g>
<g>
</g>
<g>
</g>
<g>
</g>
<g>
</g>
<g>
</g>
<g>
</g>
<g>
</g>
<g>
</g>
<g>
</g>
<g>
</g>
<g>
</g>
<g>
</g>
</svg>
