<?xml version="1.0" encoding="iso-8859-1"?>
<!-- Generator: Adobe Illustrator 19.0.0, SVG Export Plug-In . SVG Version: 6.00 Build 0)  -->
<svg version="1.1" id="Capa_1" xmlns="http://www.w3.org/2000/svg" xmlns:xlink="http://www.w3.org/1999/xlink" x="0px" y="0px"
	 viewBox="0 0 60 60" style="enable-background:new 0 0 60 60;" xml:space="preserve">
<line style="fill:none;stroke:#6C4127;stroke-width:2;stroke-linecap:round;stroke-miterlimit:10;" x1="51" y1="9.747" x2="51" y2="27.5"/>
<path style="fill:none;stroke:#426D5F;stroke-width:2;stroke-linecap:round;stroke-miterlimit:10;" d="M51,9.5c0,2.211-1.789,4-4,4"
	/>
<path style="fill:none;stroke:#426D5F;stroke-width:2;stroke-linecap:round;stroke-miterlimit:10;" d="M51,13.5c0,3.316-2.684,6-6,6
	"/>
<path style="fill:none;stroke:#426D5F;stroke-width:2;stroke-linecap:round;stroke-miterlimit:10;" d="M51,17.5c0,4.422-3.578,8-8,8
	"/>
<path style="fill:none;stroke:#426D5F;stroke-width:2;stroke-linecap:round;stroke-miterlimit:10;" d="M51,9.5c0,2.211,1.789,4,4,4"
	/>
<path style="fill:none;stroke:#426D5F;stroke-width:2;stroke-linecap:round;stroke-miterlimit:10;" d="M51,13.5c0,3.316,2.684,6,6,6
	"/>
<path style="fill:none;stroke:#426D5F;stroke-width:2;stroke-linecap:round;stroke-miterlimit:10;" d="M51,17.5c0,4.422,3.578,8,8,8
	"/>
<line style="fill:none;stroke:#6C4127;stroke-width:2;stroke-linecap:round;stroke-miterlimit:10;" x1="9" y1="9.747" x2="9" y2="27.5"/>
<path style="fill:none;stroke:#426D5F;stroke-width:2;stroke-linecap:round;stroke-miterlimit:10;" d="M9,9.5c0,2.211-1.789,4-4,4"
	/>
<path style="fill:none;stroke:#426D5F;stroke-width:2;stroke-linecap:round;stroke-miterlimit:10;" d="M9,13.5c0,3.316-2.684,6-6,6"
	/>
<path style="fill:none;stroke:#426D5F;stroke-width:2;stroke-linecap:round;stroke-miterlimit:10;" d="M9,17.5c0,4.422-3.578,8-8,8"
	/>
<path style="fill:none;stroke:#426D5F;stroke-width:2;stroke-linecap:round;stroke-miterlimit:10;" d="M9,9.5c0,2.211,1.789,4,4,4"
	/>
<path style="fill:none;stroke:#426D5F;stroke-width:2;stroke-linecap:round;stroke-miterlimit:10;" d="M9,13.5c0,3.316,2.684,6,6,6"
	/>
<path style="fill:none;stroke:#426D5F;stroke-width:2;stroke-linecap:round;stroke-miterlimit:10;" d="M9,17.5c0,4.422,3.578,8,8,8"
	/>
<line style="fill:none;stroke:#6C4127;stroke-width:2;stroke-linecap:round;stroke-miterlimit:10;" x1="30" y1="4.747" x2="30" y2="22.5"/>
<path style="fill:none;stroke:#426D5F;stroke-width:2;stroke-linecap:round;stroke-miterlimit:10;" d="M30,4.5c0,2.211-1.789,4-4,4"
	/>
<path style="fill:none;stroke:#426D5F;stroke-width:2;stroke-linecap:round;stroke-miterlimit:10;" d="M30,8.5c0,3.316-2.684,6-6,6"
	/>
<path style="fill:none;stroke:#426D5F;stroke-width:2;stroke-linecap:round;stroke-miterlimit:10;" d="M30,12.5c0,4.422-3.578,8-8,8
	"/>
<path style="fill:none;stroke:#426D5F;stroke-width:2;stroke-linecap:round;stroke-miterlimit:10;" d="M30,4.5c0,2.211,1.789,4,4,4"
	/>
<path style="fill:none;stroke:#426D5F;stroke-width:2;stroke-linecap:round;stroke-miterlimit:10;" d="M30,8.5c0,3.316,2.684,6,6,6"
	/>
<path style="fill:none;stroke:#426D5F;stroke-width:2;stroke-linecap:round;stroke-miterlimit:10;" d="M30,12.5c0,4.422,3.578,8,8,8
	"/>
<path style="fill:#6B5B4B;" d="M47.674,34.5H13.326C12.594,34.5,12,33.906,12,33.174v-2.348c0-0.732,0.594-1.326,1.326-1.326h34.348
	c0.732,0,1.326,0.594,1.326,1.326v2.348C49,33.906,48.406,34.5,47.674,34.5z"/>
<path style="fill:#6B5B4B;" d="M55.674,49.5H4.326C3.594,49.5,3,48.906,3,48.174v-2.348C3,45.094,3.594,44.5,4.326,44.5h51.348
	c0.732,0,1.326,0.594,1.326,1.326v2.348C57,48.906,56.406,49.5,55.674,49.5z"/>
<g>
	<polygon style="fill:#BFA380;" points="20.636,44.5 27,34.5 21,34.5 14.636,44.5 	"/>
	<path style="fill:#BFA380;" d="M11.455,49.5l-3.704,5.82c-0.325,0.511,0.042,1.18,0.648,1.18h4.18c0.263,0,0.507-0.134,0.648-0.356
		l4.228-6.644H11.455z"/>
</g>
<g>
	<polygon style="fill:#BFA380;" points="46.364,44.5 40,34.5 34,34.5 40.364,44.5 	"/>
	<path style="fill:#BFA380;" d="M43.545,49.5l4.228,6.644c0.141,0.222,0.385,0.356,0.648,0.356h4.18c0.606,0,0.973-0.669,0.648-1.18
		l-3.704-5.82H43.545z"/>
</g>
<g>
</g>
<g>
</g>
<g>
</g>
<g>
</g>
<g>
</g>
<g>
</g>
<g>
</g>
<g>
</g>
<g>
</g>
<g>
</g>
<g>
</g>
<g>
</g>
<g>
</g>
<g>
</g>
<g>
</g>
</svg>
