<svg version="1.1" id="Capa_1" xmlns="http://www.w3.org/2000/svg" xmlns:xlink="http://www.w3.org/1999/xlink" x="0px" y="0px"
	 viewBox="0 0 512.006 512.006" style="enable-background:new 0 0 512.006 512.006;" xml:space="preserve">
<rect x="315.997" y="360.841" style="fill:#B35C4B;" width="59.995" height="135.988"/>
<rect x="345.995" y="360.841" style="fill:#8B432D;" width="29.997" height="135.988"/>
<path style="fill:#98D400;" d="M509.282,367.142l-69.994-96.29h26.698c5.4,0,10.498-3.001,13.199-7.799
	c2.701-5.099,2.401-10.799-0.601-15.6l-64.493-96.59h21.897c5.699,0,10.799-3.3,13.499-8.4c2.401-5.099,1.8-11.099-1.5-15.598
	L357.995,5.876c-3.001-3.602-7.499-5.699-12-5.699s-8.999,2.098-12,5.699l-89.992,120.989c-3.3,4.499-3.9,10.498-1.5,15.598
	c2.701,5.101,7.799,8.4,13.499,8.4h21.897l-64.493,96.59c-3.001,4.801-3.301,10.5-0.601,15.6c2.701,4.799,7.799,7.799,13.199,7.799
	h26.698l-68.994,96.29c-3.301,4.501-3.602,10.5-0.901,15.6c2.401,5.099,7.499,8.1,13.199,8.1h300.973
	c5.699,0,10.799-3.001,13.199-8.1C512.884,377.642,512.584,371.642,509.282,367.142z"/>
<path style="fill:#66BD21;" d="M510.183,382.741c-2.401,5.099-7.499,8.1-13.199,8.1H345.998V0.176c4.501,0,8.999,2.098,12,5.699
	l89.992,120.989c3.3,4.499,3.9,10.498,1.5,15.598c-2.701,5.101-7.799,8.4-13.499,8.4h-21.897l64.493,96.59
	c3.001,4.801,3.301,10.5,0.601,15.6c-2.701,4.799-7.799,7.799-13.199,7.799h-26.698l69.994,96.29
	C512.584,371.642,512.884,377.642,510.183,382.741z"/>
<rect x="136.014" y="360.841" style="fill:#B35C4B;" width="59.995" height="135.988"/>
<rect x="166.011" y="360.841" style="fill:#8B432D;" width="29.997" height="135.988"/>
<path style="fill:#98D400;" d="M328.298,367.142l-68.994-96.29h26.698c5.4,0,10.498-3.001,13.199-7.799
	c2.701-5.099,2.401-10.799-0.601-15.6l-64.493-96.59h21.897c5.699,0,10.799-3.3,13.499-8.4c2.401-5.099,1.8-11.099-1.5-15.598
	L178.011,5.876c-3.001-3.602-7.499-5.699-12-5.699c-4.501,0-8.999,2.098-12,5.699L64.019,126.865c-3.3,4.499-3.9,10.498-1.5,15.598
	c2.701,5.101,7.799,8.4,13.499,8.4h21.897l-64.493,96.59c-3.001,4.801-3.301,10.5-0.601,15.6c2.701,4.799,7.799,7.799,13.199,7.799
	h26.698l-69.994,96.29c-3.301,4.501-3.602,10.5-0.901,15.6c2.401,5.099,7.499,8.1,13.199,8.1h300.973
	c5.699,0,10.799-3.001,13.199-8.1C331.9,377.642,331.6,371.642,328.298,367.142z"/>
<path style="fill:#66BD21;" d="M329.199,382.741c-2.401,5.099-7.499,8.1-13.199,8.1H166.014V0.176c4.501,0,8.999,2.098,12,5.699
	l89.992,120.989c3.3,4.499,3.9,10.498,1.5,15.598c-2.701,5.101-7.799,8.4-13.499,8.4H234.11l64.493,96.59
	c3.001,4.801,3.301,10.5,0.601,15.6c-2.701,4.799-7.799,7.799-13.199,7.799h-26.698l68.994,96.29
	C331.6,371.642,331.9,377.642,329.199,382.741z"/>
<path style="fill:#98D400;" d="M511.983,496.831c0,8.398-6.598,14.999-14.999,14.999H15.027c-8.4,0-14.999-6.6-14.999-14.999
	c0-8.4,6.598-14.999,14.999-14.999h481.957C505.384,481.833,511.983,488.431,511.983,496.831z"/>
<path style="fill:#66BD21;" d="M511.983,496.831c0,8.398-6.598,14.999-14.999,14.999H256.006v-29.997h240.978
	C505.384,481.833,511.983,488.431,511.983,496.831z"/>
</svg>
