<?xml version="1.0" encoding="iso-8859-1"?>
<!-- Generator: Adobe Illustrator 19.0.0, SVG Export Plug-In . SVG Version: 6.00 Build 0)  -->
<svg version="1.1" id="Capa_1" xmlns="http://www.w3.org/2000/svg" xmlns:xlink="http://www.w3.org/1999/xlink" x="0px" y="0px"
	 viewBox="0 0 58 58" style="enable-background:new 0 0 58 58;" xml:space="preserve">
<path style="fill:#3D6F44;" d="M7,20.5l-0.447-0.247c-8.738-4.834-8.738-13.919,0-18.753L7,1.253L7.447,1.5
	c8.738,4.834,8.738,13.919,0,18.753L7,20.5z"/>
<line style="fill:none;stroke:#6C4127;stroke-width:2;stroke-linecap:round;stroke-miterlimit:10;" x1="7" y1="14.5" x2="7" y2="30.5"/>
<line style="fill:none;stroke:#6C4127;stroke-width:2;stroke-linecap:round;stroke-miterlimit:10;" x1="7" y1="14.5" x2="4" y2="11.5"/>
<line style="fill:none;stroke:#6C4127;stroke-width:2;stroke-linecap:round;stroke-miterlimit:10;" x1="7" y1="14.5" x2="10" y2="11.5"/>
<line style="fill:none;stroke:#6C4127;stroke-width:2;stroke-linecap:round;stroke-miterlimit:10;" x1="7" y1="14.5" x2="7" y2="9.5"/>
<path style="fill:#659C35;" d="M18,45.747L17.553,45.5c-8.738-4.834-8.738-13.919,0-18.753L18,26.5l0.447,0.247
	c8.738,4.834,8.738,13.919,0,18.753L18,45.747z"/>
<line style="fill:none;stroke:#6C4127;stroke-width:2;stroke-linecap:round;stroke-miterlimit:10;" x1="18" y1="39.747" x2="18" y2="55.747"/>
<line style="fill:none;stroke:#6C4127;stroke-width:2;stroke-linecap:round;stroke-miterlimit:10;" x1="18" y1="39.747" x2="15" y2="36.747"/>
<line style="fill:none;stroke:#6C4127;stroke-width:2;stroke-linecap:round;stroke-miterlimit:10;" x1="18" y1="39.747" x2="21" y2="36.747"/>
<line style="fill:none;stroke:#6C4127;stroke-width:2;stroke-linecap:round;stroke-miterlimit:10;" x1="18" y1="39.747" x2="18" y2="34.747"/>
<path style="fill:#3D6F44;" d="M40,45.747L39.553,45.5c-8.738-4.834-8.738-13.919,0-18.753L40,26.5l0.447,0.247
	c8.738,4.834,8.738,13.919,0,18.753L40,45.747z"/>
<line style="fill:none;stroke:#6C4127;stroke-width:2;stroke-linecap:round;stroke-miterlimit:10;" x1="40" y1="39.747" x2="40" y2="55.747"/>
<line style="fill:none;stroke:#6C4127;stroke-width:2;stroke-linecap:round;stroke-miterlimit:10;" x1="40" y1="39.747" x2="37" y2="36.747"/>
<line style="fill:none;stroke:#6C4127;stroke-width:2;stroke-linecap:round;stroke-miterlimit:10;" x1="40" y1="39.747" x2="43" y2="36.747"/>
<line style="fill:none;stroke:#6C4127;stroke-width:2;stroke-linecap:round;stroke-miterlimit:10;" x1="40" y1="39.747" x2="40" y2="34.747"/>
<path style="fill:#88C057;" d="M51,20.5l-0.447-0.247c-8.738-4.834-8.738-13.919,0-18.753L51,1.253L51.447,1.5
	c8.738,4.834,8.738,13.919,0,18.753L51,20.5z"/>
<line style="fill:none;stroke:#6C4127;stroke-width:2;stroke-linecap:round;stroke-miterlimit:10;" x1="51" y1="14.5" x2="51" y2="30.5"/>
<line style="fill:none;stroke:#6C4127;stroke-width:2;stroke-linecap:round;stroke-miterlimit:10;" x1="51" y1="14.5" x2="48" y2="11.5"/>
<line style="fill:none;stroke:#6C4127;stroke-width:2;stroke-linecap:round;stroke-miterlimit:10;" x1="51" y1="14.5" x2="54" y2="11.5"/>
<line style="fill:none;stroke:#6C4127;stroke-width:2;stroke-linecap:round;stroke-miterlimit:10;" x1="51" y1="14.5" x2="51" y2="9.5"/>
<path style="fill:#659C35;" d="M29,20.5l-0.447-0.247c-8.738-4.834-8.738-13.919,0-18.753L29,1.253L29.447,1.5
	c8.738,4.834,8.738,13.919,0,18.753L29,20.5z"/>
<line style="fill:none;stroke:#6C4127;stroke-width:2;stroke-linecap:round;stroke-miterlimit:10;" x1="29" y1="14.5" x2="29" y2="30.5"/>
<line style="fill:none;stroke:#6C4127;stroke-width:2;stroke-linecap:round;stroke-miterlimit:10;" x1="29" y1="14.5" x2="26" y2="11.5"/>
<line style="fill:none;stroke:#6C4127;stroke-width:2;stroke-linecap:round;stroke-miterlimit:10;" x1="29" y1="14.5" x2="32" y2="11.5"/>
<line style="fill:none;stroke:#6C4127;stroke-width:2;stroke-linecap:round;stroke-miterlimit:10;" x1="29" y1="14.5" x2="29" y2="9.5"/>
<g>
</g>
<g>
</g>
<g>
</g>
<g>
</g>
<g>
</g>
<g>
</g>
<g>
</g>
<g>
</g>
<g>
</g>
<g>
</g>
<g>
</g>
<g>
</g>
<g>
</g>
<g>
</g>
<g>
</g>
</svg>
