<?xml version="1.0" encoding="iso-8859-1"?>
<!-- Generator: Adobe Illustrator 19.0.0, SVG Export Plug-In . SVG Version: 6.00 Build 0)  -->
<svg version="1.1" id="Capa_1" xmlns="http://www.w3.org/2000/svg" xmlns:xlink="http://www.w3.org/1999/xlink" x="0px" y="0px"
	 viewBox="0 0 59 59" style="enable-background:new 0 0 59 59;" xml:space="preserve">
<path style="fill:#659C35;" d="M25.026,2.166L25.026,2.166c0.088,0.573,0.859,0.695,1.121,0.177l0,0
	c1.317-2.608,5.273-1.323,4.805,1.561l0,0c-0.093,0.572,0.603,0.926,1.011,0.515l0,0c2.058-2.074,5.423,0.371,4.087,2.969l0,0
	c-0.265,0.515,0.287,1.067,0.802,0.802l0,0c2.598-1.336,5.043,2.029,2.969,4.087l0,0c-0.411,0.408-0.057,1.104,0.515,1.011l0,0
	c2.884-0.468,4.169,3.488,1.561,4.805l0,0c-0.517,0.261-0.395,1.032,0.177,1.121l0,0c2.887,0.446,2.887,4.606,0,5.052l0,0
	c-0.573,0.088-0.695,0.859-0.177,1.121l0,0c2.608,1.317,1.323,5.273-1.561,4.805l0,0c-0.572-0.093-0.926,0.603-0.515,1.011l0,0
	c2.074,2.058-0.371,5.423-2.969,4.087l0,0c-0.515-0.265-1.067,0.287-0.802,0.802l0,0c1.336,2.598-2.029,5.043-4.087,2.969l0,0
	c-0.408-0.411-1.104-0.057-1.011,0.515l0,0c0.468,2.884-3.488,4.169-4.805,1.561l0,0c-0.261-0.517-1.032-0.395-1.121,0.177l0,0
	c-0.446,2.887-4.606,2.887-5.052,0l0,0c-0.088-0.573-0.859-0.695-1.121-0.177l0,0c-1.317,2.608-5.273,1.323-4.805-1.561l0,0
	c0.093-0.572-0.603-0.926-1.011-0.515l0,0c-2.058,2.074-5.423-0.371-4.087-2.969l0,0c0.265-0.515-0.287-1.067-0.802-0.802l0,0
	c-2.598,1.336-5.043-2.029-2.969-4.087l0,0c0.411-0.408,0.057-1.104-0.515-1.011l0,0c-2.884,0.468-4.169-3.488-1.561-4.805l0,0
	c0.517-0.261,0.395-1.032-0.177-1.121l0,0c-2.887-0.446-2.887-4.606,0-5.052l0,0c0.573-0.088,0.695-0.859,0.177-1.121l0,0
	c-2.608-1.317-1.323-5.273,1.561-4.805l0,0c0.572,0.093,0.926-0.603,0.515-1.011l0,0C3.106,10.22,5.551,6.855,8.149,8.191l0,0
	c0.515,0.265,1.067-0.287,0.802-0.802l0,0C7.615,4.79,10.98,2.345,13.038,4.419l0,0c0.408,0.411,1.104,0.057,1.011-0.515l0,0
	c-0.468-2.884,3.488-4.169,4.805-1.561l0,0c0.261,0.517,1.032,0.395,1.121-0.177l0,0C20.42-0.722,24.58-0.722,25.026,2.166z"/>
<path style="fill:#6B5B4B;" d="M25.026,41.314c-0.446,2.887-4.606,2.887-5.052,0c-0.059-0.382-0.734-0.619-0.734-0.482
	s0,17.168,0,17.168h6c0,0,0-16.952,0-17.054S25.051,41.153,25.026,41.314z"/>
<path style="fill:#A4E869;" d="M25.24,34c-0.552,0-1-0.447-1-1c0-4.963,4.038-9,9-9c0.552,0,1,0.447,1,1s-0.448,1-1,1
	c-3.86,0-7,3.141-7,7C26.24,33.553,25.792,34,25.24,34z"/>
<path style="fill:#A4E869;" d="M19.24,37c-0.552,0-1-0.447-1-1c0-3.859-3.14-7-7-7c-0.552,0-1-0.447-1-1s0.448-1,1-1
	c4.962,0,9,4.037,9,9C20.24,36.553,19.792,37,19.24,37z"/>
<path style="fill:#A4E869;" d="M21.24,26c-0.552,0-1-0.447-1-1c0-3.859-3.14-7-7-7c-0.552,0-1-0.447-1-1s0.448-1,1-1
	c4.962,0,9,4.037,9,9C22.24,25.553,21.792,26,21.24,26z"/>
<path style="fill:#A4E869;" d="M22.24,18c-0.552,0-1-0.447-1-1c0-4.963,4.038-9,9-9c0.552,0,1,0.447,1,1s-0.448,1-1,1
	c-3.86,0-7,3.141-7,7C23.24,17.553,22.792,18,22.24,18z"/>
<path style="fill:#A4E869;" d="M37.24,18c-2.206,0-4-1.794-4-4c0-0.553,0.448-1,1-1s1,0.447,1,1c0,1.103,0.897,2,2,2
	c0.552,0,1,0.447,1,1S37.792,18,37.24,18z"/>
<path style="fill:#A4E869;" d="M28.24,22c-0.552,0-1-0.447-1-1c0-2.206,1.794-4,4-4c0.552,0,1,0.447,1,1s-0.448,1-1,1
	c-1.103,0-2,0.897-2,2C29.24,21.553,28.792,22,28.24,22z"/>
<path style="fill:#A4E869;" d="M19.24,11c-2.206,0-4-1.794-4-4c0-0.553,0.448-1,1-1c0.552,0,1,0.447,1,1c0,1.103,0.897,2,2,2
	c0.552,0,1,0.447,1,1S19.792,11,19.24,11z"/>
<path style="fill:#A4E869;" d="M8.24,24c-0.552,0-1-0.447-1-1s0.448-1,1-1c1.103,0,2-0.897,2-2c0-0.553,0.448-1,1-1s1,0.447,1,1
	C12.24,22.206,10.445,24,8.24,24z"/>
<path style="fill:#A4E869;" d="M32.24,34c-0.552,0-1-0.447-1-1c0-2.206,1.794-4,4-4c0.552,0,1,0.447,1,1s-0.448,1-1,1
	c-1.103,0-2,0.897-2,2C33.24,33.553,32.792,34,32.24,34z"/>
<path style="fill:#23A24D;" d="M16.24,59c-0.552,0-1-0.447-1-1v-1c0-0.553,0.448-1,1-1c0.552,0,1,0.447,1,1v1
	C17.24,58.553,16.792,59,16.24,59z"/>
<path style="fill:#23A24D;" d="M13.24,59c-0.552,0-1-0.447-1-1v-1c0-0.553,0.448-1,1-1s1,0.447,1,1v1
	C14.24,58.553,13.792,59,13.24,59z"/>
<path style="fill:#23A24D;" d="M10.24,59c-0.552,0-1-0.447-1-1v-1c0-0.553,0.448-1,1-1s1,0.447,1,1v1
	C11.24,58.553,10.792,59,10.24,59z"/>
<path style="fill:#23A24D;" d="M7.24,59c-0.552,0-1-0.447-1-1v-1c0-0.553,0.448-1,1-1s1,0.447,1,1v1C8.24,58.553,7.792,59,7.24,59z"
	/>
<path style="fill:#23A24D;" d="M4.24,59c-0.552,0-1-0.447-1-1v-1c0-0.553,0.448-1,1-1s1,0.447,1,1v1C5.24,58.553,4.792,59,4.24,59z"
	/>
<path style="fill:#23A24D;" d="M34.24,59c-0.552,0-1-0.447-1-1v-1c0-0.553,0.448-1,1-1s1,0.447,1,1v1
	C35.24,58.553,34.792,59,34.24,59z"/>
<path style="fill:#23A24D;" d="M31.24,59c-0.552,0-1-0.447-1-1v-1c0-0.553,0.448-1,1-1s1,0.447,1,1v1
	C32.24,58.553,31.792,59,31.24,59z"/>
<path style="fill:#23A24D;" d="M28.24,59c-0.552,0-1-0.447-1-1v-1c0-0.553,0.448-1,1-1s1,0.447,1,1v1
	C29.24,58.553,28.792,59,28.24,59z"/>
<path style="fill:#23A24D;" d="M43.24,59c-0.552,0-1-0.447-1-1v-1c0-0.553,0.448-1,1-1s1,0.447,1,1v1
	C44.24,58.553,43.792,59,43.24,59z"/>
<path style="fill:#23A24D;" d="M40.24,59c-0.552,0-1-0.447-1-1v-1c0-0.553,0.448-1,1-1s1,0.447,1,1v1
	C41.24,58.553,40.792,59,40.24,59z"/>
<path style="fill:#23A24D;" d="M37.24,59c-0.552,0-1-0.447-1-1v-1c0-0.553,0.448-1,1-1s1,0.447,1,1v1
	C38.24,58.553,37.792,59,37.24,59z"/>
<path style="fill:#23A24D;" d="M52.24,59c-0.552,0-1-0.447-1-1v-1c0-0.553,0.448-1,1-1s1,0.447,1,1v1
	C53.24,58.553,52.792,59,52.24,59z"/>
<path style="fill:#23A24D;" d="M49.24,59c-0.552,0-1-0.447-1-1v-1c0-0.553,0.448-1,1-1s1,0.447,1,1v1
	C50.24,58.553,49.792,59,49.24,59z"/>
<path style="fill:#23A24D;" d="M46.24,59c-0.552,0-1-0.447-1-1v-1c0-0.553,0.448-1,1-1s1,0.447,1,1v1
	C47.24,58.553,46.792,59,46.24,59z"/>
<path style="fill:none;stroke:#556080;stroke-width:2;stroke-linecap:round;stroke-miterlimit:10;" d="M51.24,12
	c0-3.316,2.684-6,6-6"/>
<path style="fill:none;stroke:#556080;stroke-width:2;stroke-linecap:round;stroke-miterlimit:10;" d="M51.24,12
	c0-2.764-2.236-5-5-5"/>
<g>
</g>
<g>
</g>
<g>
</g>
<g>
</g>
<g>
</g>
<g>
</g>
<g>
</g>
<g>
</g>
<g>
</g>
<g>
</g>
<g>
</g>
<g>
</g>
<g>
</g>
<g>
</g>
<g>
</g>
</svg>
