<?xml version="1.0" encoding="iso-8859-1"?>
<!-- Generator: Adobe Illustrator 19.0.0, SVG Export Plug-In . SVG Version: 6.00 Build 0)  -->
<svg version="1.1" id="Capa_1" xmlns="http://www.w3.org/2000/svg" xmlns:xlink="http://www.w3.org/1999/xlink" x="0px" y="0px"
	 viewBox="0 0 56.943 56.943" style="enable-background:new 0 0 56.943 56.943;" xml:space="preserve">
<path style="fill:#57823B;" d="M15.763,15.763c2.322-2.322,5.124-3.858,8.084-4.644L13.096,0.368c-0.49-0.49-1.285-0.49-1.775,0
	L0.368,11.32c-0.49,0.49-0.49,1.285,0,1.775l10.751,10.751C11.904,20.886,13.441,18.084,15.763,15.763z"/>
<path style="fill:#57823B;" d="M41.18,41.18c-2.322,2.322-5.124,3.858-8.084,4.644l10.751,10.751c0.49,0.49,1.285,0.49,1.775,0
	l10.953-10.953c0.49-0.49,0.49-1.285,0-1.775L45.824,33.096C45.038,36.056,43.502,38.859,41.18,41.18z"/>
<path style="fill:#2A4F24;" d="M10.471,15.463c-0.552,0-1-0.448-1-1v-8c0-0.552,0.448-1,1-1s1,0.448,1,1v8
	C11.471,15.015,11.024,15.463,10.471,15.463z"/>
<path style="fill:#2A4F24;" d="M14.471,11.463h-8c-0.552,0-1-0.448-1-1s0.448-1,1-1h8c0.552,0,1,0.448,1,1
	S15.024,11.463,14.471,11.463z"/>
<path style="fill:#2A4F24;" d="M46.471,51.463c-0.552,0-1-0.448-1-1v-8c0-0.552,0.448-1,1-1s1,0.448,1,1v8
	C47.471,51.015,47.024,51.463,46.471,51.463z"/>
<path style="fill:#2A4F24;" d="M50.471,47.463h-8c-0.552,0-1-0.448-1-1s0.448-1,1-1h8c0.552,0,1,0.448,1,1
	S51.024,47.463,50.471,47.463z"/>
<circle style="fill:#FFFFFF;stroke:#556080;stroke-width:2;stroke-linecap:round;stroke-linejoin:round;stroke-miterlimit:10;" cx="28.471" cy="28.471" r="17.973"/>
<line style="fill:none;stroke:#EBBA16;stroke-width:2;stroke-linecap:round;stroke-linejoin:round;stroke-miterlimit:10;" x1="10.471" y1="28.471" x2="14.471" y2="28.471"/>
<line style="fill:none;stroke:#EBBA16;stroke-width:2;stroke-linecap:round;stroke-linejoin:round;stroke-miterlimit:10;" x1="42.471" y1="28.471" x2="46.471" y2="28.471"/>
<line style="fill:none;stroke:#EBBA16;stroke-width:2;stroke-linecap:round;stroke-linejoin:round;stroke-miterlimit:10;" x1="28.471" y1="10.463" x2="28.471" y2="14.463"/>
<line style="fill:none;stroke:#EBBA16;stroke-width:2;stroke-linecap:round;stroke-linejoin:round;stroke-miterlimit:10;" x1="28.471" y1="42.463" x2="28.471" y2="46.463"/>
<line style="fill:none;stroke:#556080;stroke-width:2;stroke-miterlimit:10;" x1="43.593" y1="13.341" x2="41.471" y2="15.463"/>
<path style="fill:#7383BF;" d="M45.392,15.14l-3.598-3.598c-0.178-0.178-0.178-0.467,0-0.645l2.183-2.183
	c0.178-0.178,0.467-0.178,0.645,0l3.598,3.598c0.178,0.178,0.178,0.467,0,0.645l-2.183,2.183
	C45.858,15.318,45.57,15.318,45.392,15.14z"/>
<path style="fill:#1081E0;" d="M31.326,27.676c0.096,0.52,0.094,1.054-0.005,1.573c0,0-2.274,9.214-2.85,9.214h0
	c-0.575,0-2.85-9.214-2.85-9.214c-0.099-0.519-0.101-1.053-0.005-1.573c0,0,2.279-9.213,2.855-9.213h0
	C29.047,18.463,31.326,27.676,31.326,27.676z"/>
<g>
</g>
<g>
</g>
<g>
</g>
<g>
</g>
<g>
</g>
<g>
</g>
<g>
</g>
<g>
</g>
<g>
</g>
<g>
</g>
<g>
</g>
<g>
</g>
<g>
</g>
<g>
</g>
<g>
</g>
</svg>
