<?xml version="1.0" encoding="iso-8859-1"?>
<!-- Generator: Adobe Illustrator 19.0.0, SVG Export Plug-In . SVG Version: 6.00 Build 0)  -->
<svg version="1.1" id="Capa_1" xmlns="http://www.w3.org/2000/svg" xmlns:xlink="http://www.w3.org/1999/xlink" x="0px" y="0px"
	 viewBox="0 0 57.786 57.786" style="enable-background:new 0 0 57.786 57.786;" xml:space="preserve">
<polygon style="fill:#E7ECED;" points="31.925,27.893 33.925,25.893 35.925,27.893 37.925,25.893 39.925,27.893 42.8,25.018 
	35.925,11.893 29.05,25.018 "/>
<path style="fill:#6B5B4B;" d="M57.761,53.579L42.8,25.018l-2.875,2.875l-2-2l-2,2l-2-2l-2,2l-2.875-2.875L13.925,53.893h43.646
	C57.732,53.893,57.836,53.722,57.761,53.579z"/>
<path style="fill:#659C35;" d="M11.559,36.054L0.015,53.756c-0.038,0.059,0.004,0.137,0.074,0.137h13.836l7.761-14.816l-2.836-3.434
	C16.903,33.287,13.229,33.494,11.559,36.054z"/>
<circle style="fill:#EFCE4A;" cx="11.925" cy="9.893" r="7"/>
<line style="fill:none;stroke:#6C4127;stroke-width:2;stroke-linecap:round;stroke-miterlimit:10;" x1="27.925" y1="36.14" x2="27.925" y2="53.893"/>
<path style="fill:none;stroke:#88C057;stroke-width:2;stroke-linecap:round;stroke-miterlimit:10;" d="M27.925,35.893
	c0,2.211-1.789,4-4,4"/>
<path style="fill:none;stroke:#88C057;stroke-width:2;stroke-linecap:round;stroke-miterlimit:10;" d="M27.925,39.893
	c0,3.316-2.684,6-6,6"/>
<path style="fill:none;stroke:#88C057;stroke-width:2;stroke-linecap:round;stroke-miterlimit:10;" d="M27.925,43.893
	c0,4.422-3.578,8-8,8"/>
<path style="fill:none;stroke:#88C057;stroke-width:2;stroke-linecap:round;stroke-miterlimit:10;" d="M27.925,35.893
	c0,2.211,1.789,4,4,4"/>
<path style="fill:none;stroke:#88C057;stroke-width:2;stroke-linecap:round;stroke-miterlimit:10;" d="M27.925,39.893
	c0,3.316,2.684,6,6,6"/>
<path style="fill:none;stroke:#88C057;stroke-width:2;stroke-linecap:round;stroke-miterlimit:10;" d="M27.925,43.893
	c0,4.422,3.578,8,8,8"/>
<line style="fill:none;stroke:#6C4127;stroke-width:2;stroke-linecap:round;stroke-miterlimit:10;" x1="43.925" y1="36.14" x2="43.925" y2="53.893"/>
<path style="fill:none;stroke:#88C057;stroke-width:2;stroke-linecap:round;stroke-miterlimit:10;" d="M43.925,35.893
	c0,2.211-1.789,4-4,4"/>
<path style="fill:none;stroke:#88C057;stroke-width:2;stroke-linecap:round;stroke-miterlimit:10;" d="M43.925,39.893
	c0,3.316-2.684,6-6,6"/>
<path style="fill:none;stroke:#88C057;stroke-width:2;stroke-linecap:round;stroke-miterlimit:10;" d="M43.925,43.893
	c0,4.422-3.578,8-8,8"/>
<path style="fill:none;stroke:#88C057;stroke-width:2;stroke-linecap:round;stroke-miterlimit:10;" d="M43.925,35.893
	c0,2.211,1.789,4,4,4"/>
<path style="fill:none;stroke:#88C057;stroke-width:2;stroke-linecap:round;stroke-miterlimit:10;" d="M43.925,39.893
	c0,3.316,2.684,6,6,6"/>
<path style="fill:none;stroke:#88C057;stroke-width:2;stroke-linecap:round;stroke-miterlimit:10;" d="M43.925,43.893
	c0,4.422,3.578,8,8,8"/>
<path style="fill:none;stroke:#556080;stroke-width:2;stroke-linecap:round;stroke-miterlimit:10;" d="M50.325,17.293
	c0-2.985-2.415-5.4-5.4-5.4"/>
<path style="fill:none;stroke:#556080;stroke-width:2;stroke-linecap:round;stroke-miterlimit:10;" d="M50.325,17.293
	c0-1.99,1.61-3.6,3.6-3.6"/>
<g>
</g>
<g>
</g>
<g>
</g>
<g>
</g>
<g>
</g>
<g>
</g>
<g>
</g>
<g>
</g>
<g>
</g>
<g>
</g>
<g>
</g>
<g>
</g>
<g>
</g>
<g>
</g>
<g>
</g>
</svg>
