<?xml version="1.0" encoding="iso-8859-1"?>
<!-- Generator: Adobe Illustrator 19.0.0, SVG Export Plug-In . SVG Version: 6.00 Build 0)  -->
<svg version="1.1" id="Capa_1" xmlns="http://www.w3.org/2000/svg" xmlns:xlink="http://www.w3.org/1999/xlink" x="0px" y="0px"
	 viewBox="0 0 59 59" style="enable-background:new 0 0 59 59;" xml:space="preserve">
<line style="fill:none;stroke:#6C4127;stroke-width:2;stroke-linecap:round;stroke-miterlimit:10;" x1="30" y1="40.247" x2="30" y2="58"/>
<path style="fill:none;stroke:#426D5F;stroke-width:2;stroke-linecap:round;stroke-miterlimit:10;" d="M30,40c0,2.211-1.789,4-4,4"
	/>
<path style="fill:none;stroke:#426D5F;stroke-width:2;stroke-linecap:round;stroke-miterlimit:10;" d="M30,44c0,3.316-2.684,6-6,6"
	/>
<path style="fill:none;stroke:#426D5F;stroke-width:2;stroke-linecap:round;stroke-miterlimit:10;" d="M30,48c0,4.422-3.578,8-8,8"
	/>
<path style="fill:none;stroke:#426D5F;stroke-width:2;stroke-linecap:round;stroke-miterlimit:10;" d="M30,40c0,2.211,1.789,4,4,4"
	/>
<path style="fill:none;stroke:#426D5F;stroke-width:2;stroke-linecap:round;stroke-miterlimit:10;" d="M30,44c0,3.316,2.684,6,6,6"
	/>
<path style="fill:none;stroke:#426D5F;stroke-width:2;stroke-linecap:round;stroke-miterlimit:10;" d="M30,48c0,4.422,3.578,8,8,8"
	/>
<line style="fill:none;stroke:#6C4127;stroke-width:2;stroke-linecap:round;stroke-miterlimit:10;" x1="30" y1="14.247" x2="30" y2="32"/>
<path style="fill:none;stroke:#426D5F;stroke-width:2;stroke-linecap:round;stroke-miterlimit:10;" d="M30,14c0,2.211-1.789,4-4,4"
	/>
<path style="fill:none;stroke:#426D5F;stroke-width:2;stroke-linecap:round;stroke-miterlimit:10;" d="M30,18c0,3.316-2.684,6-6,6"
	/>
<path style="fill:none;stroke:#426D5F;stroke-width:2;stroke-linecap:round;stroke-miterlimit:10;" d="M30,22c0,4.422-3.578,8-8,8"
	/>
<path style="fill:none;stroke:#426D5F;stroke-width:2;stroke-linecap:round;stroke-miterlimit:10;" d="M30,14c0,2.211,1.789,4,4,4"
	/>
<path style="fill:none;stroke:#426D5F;stroke-width:2;stroke-linecap:round;stroke-miterlimit:10;" d="M30,18c0,3.316,2.684,6,6,6"
	/>
<path style="fill:none;stroke:#426D5F;stroke-width:2;stroke-linecap:round;stroke-miterlimit:10;" d="M30,22c0,4.422,3.578,8,8,8"
	/>
<line style="fill:none;stroke:#6C4127;stroke-width:2;stroke-linecap:round;stroke-miterlimit:10;" x1="11" y1="1.247" x2="11" y2="19"/>
<path style="fill:none;stroke:#426D5F;stroke-width:2;stroke-linecap:round;stroke-miterlimit:10;" d="M11,1c0,2.211-1.789,4-4,4"/>
<path style="fill:none;stroke:#426D5F;stroke-width:2;stroke-linecap:round;stroke-miterlimit:10;" d="M11,5c0,3.316-2.684,6-6,6"/>
<path style="fill:none;stroke:#426D5F;stroke-width:2;stroke-linecap:round;stroke-miterlimit:10;" d="M11,9c0,4.422-3.578,8-8,8"/>
<path style="fill:none;stroke:#426D5F;stroke-width:2;stroke-linecap:round;stroke-miterlimit:10;" d="M11,1c0,2.211,1.789,4,4,4"/>
<path style="fill:none;stroke:#426D5F;stroke-width:2;stroke-linecap:round;stroke-miterlimit:10;" d="M11,5c0,3.316,2.684,6,6,6"/>
<path style="fill:none;stroke:#426D5F;stroke-width:2;stroke-linecap:round;stroke-miterlimit:10;" d="M11,9c0,4.422,3.578,8,8,8"/>
<line style="fill:none;stroke:#6C4127;stroke-width:2;stroke-linecap:round;stroke-miterlimit:10;" x1="48" y1="1.247" x2="48" y2="19"/>
<path style="fill:none;stroke:#426D5F;stroke-width:2;stroke-linecap:round;stroke-miterlimit:10;" d="M48,1c0,2.211-1.789,4-4,4"/>
<path style="fill:none;stroke:#426D5F;stroke-width:2;stroke-linecap:round;stroke-miterlimit:10;" d="M48,5c0,3.316-2.684,6-6,6"/>
<path style="fill:none;stroke:#426D5F;stroke-width:2;stroke-linecap:round;stroke-miterlimit:10;" d="M48,9c0,4.422-3.578,8-8,8"/>
<path style="fill:none;stroke:#426D5F;stroke-width:2;stroke-linecap:round;stroke-miterlimit:10;" d="M48,1c0,2.211,1.789,4,4,4"/>
<path style="fill:none;stroke:#426D5F;stroke-width:2;stroke-linecap:round;stroke-miterlimit:10;" d="M48,5c0,3.316,2.684,6,6,6"/>
<path style="fill:none;stroke:#426D5F;stroke-width:2;stroke-linecap:round;stroke-miterlimit:10;" d="M48,9c0,4.422,3.578,8,8,8"/>
<line style="fill:none;stroke:#6C4127;stroke-width:2;stroke-linecap:round;stroke-miterlimit:10;" x1="48" y1="26.247" x2="48" y2="44"/>
<path style="fill:none;stroke:#426D5F;stroke-width:2;stroke-linecap:round;stroke-miterlimit:10;" d="M48,26c0,2.211-1.789,4-4,4"
	/>
<path style="fill:none;stroke:#426D5F;stroke-width:2;stroke-linecap:round;stroke-miterlimit:10;" d="M48,30c0,3.316-2.684,6-6,6"
	/>
<path style="fill:none;stroke:#426D5F;stroke-width:2;stroke-linecap:round;stroke-miterlimit:10;" d="M48,34c0,4.422-3.578,8-8,8"
	/>
<path style="fill:none;stroke:#426D5F;stroke-width:2;stroke-linecap:round;stroke-miterlimit:10;" d="M48,26c0,2.211,1.789,4,4,4"
	/>
<path style="fill:none;stroke:#426D5F;stroke-width:2;stroke-linecap:round;stroke-miterlimit:10;" d="M48,30c0,3.316,2.684,6,6,6"
	/>
<path style="fill:none;stroke:#426D5F;stroke-width:2;stroke-linecap:round;stroke-miterlimit:10;" d="M48,34c0,4.422,3.578,8,8,8"
	/>
<line style="fill:none;stroke:#6C4127;stroke-width:2;stroke-linecap:round;stroke-miterlimit:10;" x1="11" y1="26.247" x2="11" y2="44"/>
<path style="fill:none;stroke:#426D5F;stroke-width:2;stroke-linecap:round;stroke-miterlimit:10;" d="M11,26c0,2.211-1.789,4-4,4"
	/>
<path style="fill:none;stroke:#426D5F;stroke-width:2;stroke-linecap:round;stroke-miterlimit:10;" d="M11,30c0,3.316-2.684,6-6,6"
	/>
<path style="fill:none;stroke:#426D5F;stroke-width:2;stroke-linecap:round;stroke-miterlimit:10;" d="M11,34c0,4.422-3.578,8-8,8"
	/>
<path style="fill:none;stroke:#426D5F;stroke-width:2;stroke-linecap:round;stroke-miterlimit:10;" d="M11,26c0,2.211,1.789,4,4,4"
	/>
<path style="fill:none;stroke:#426D5F;stroke-width:2;stroke-linecap:round;stroke-miterlimit:10;" d="M11,30c0,3.316,2.684,6,6,6"
	/>
<path style="fill:none;stroke:#426D5F;stroke-width:2;stroke-linecap:round;stroke-miterlimit:10;" d="M11,34c0,4.422,3.578,8,8,8"
	/>
<g>
</g>
<g>
</g>
<g>
</g>
<g>
</g>
<g>
</g>
<g>
</g>
<g>
</g>
<g>
</g>
<g>
</g>
<g>
</g>
<g>
</g>
<g>
</g>
<g>
</g>
<g>
</g>
<g>
</g>
</svg>
