<?xml version="1.0" encoding="iso-8859-1"?>
<!-- Generator: Adobe Illustrator 19.0.0, SVG Export Plug-In . SVG Version: 6.00 Build 0)  -->
<svg version="1.1" id="Capa_1" xmlns="http://www.w3.org/2000/svg" xmlns:xlink="http://www.w3.org/1999/xlink" x="0px" y="0px"
	 viewBox="0 0 60 60" style="enable-background:new 0 0 60 60;" xml:space="preserve">
<line style="fill:none;stroke:#38454F;stroke-width:2;stroke-linecap:round;stroke-miterlimit:10;" x1="30" y1="1" x2="30" y2="15"/>
<polygon style="fill:#EFCE4A;" points="43.008,7 31.008,7 31.008,1 43.008,1 39.008,4 "/>
<polygon style="fill:#8A9A6D;" points="51,59 30,15 9,59 "/>
<path style="fill:#3A3F2D;" d="M23.118,58.973l6.963-23.893c0.014-0.031,0.059-0.031,0.073,0L37.118,59L23.118,58.973z"/>
<line style="fill:none;stroke:#556080;stroke-width:2;stroke-linecap:round;stroke-miterlimit:10;" x1="30" y1="16" x2="35" y2="11"/>
<line style="fill:none;stroke:#556080;stroke-width:2;stroke-linecap:round;stroke-miterlimit:10;" x1="25" y1="11" x2="30" y2="16"/>
<path style="fill:none;stroke:#556080;stroke-width:2;stroke-linecap:round;stroke-miterlimit:10;" d="M5,59c0,0,11.875-38,25-44"/>
<path style="fill:none;stroke:#556080;stroke-width:2;stroke-linecap:round;stroke-miterlimit:10;" d="M55,59c0,0-11.875-38-25-44"
	/>
<line style="fill:none;stroke:#556080;stroke-width:2;stroke-linecap:round;stroke-miterlimit:10;" x1="5" y1="59" x2="1" y2="54"/>
<line style="fill:none;stroke:#556080;stroke-width:2;stroke-linecap:round;stroke-miterlimit:10;" x1="55" y1="59" x2="59" y2="54"/>
<path style="fill:#596344;" d="M37.118,59l2.892-10.846c0.674-2.529-0.194-5.218-2.219-6.876L30.118,35L37.118,59z"/>
<g>
	<circle style="fill:#C6D1B0;" cx="14" cy="58" r="1"/>
	<circle style="fill:#C6D1B0;" cx="18" cy="58" r="1"/>
	<circle style="fill:#C6D1B0;" cx="16" cy="56" r="1"/>
	<circle style="fill:#C6D1B0;" cx="16" cy="52" r="1"/>
	<circle style="fill:#C6D1B0;" cx="20" cy="52" r="1"/>
	<circle style="fill:#C6D1B0;" cx="18" cy="50" r="1"/>
	<circle style="fill:#C6D1B0;" cx="16" cy="48" r="1"/>
	<circle style="fill:#C6D1B0;" cx="12" cy="56" r="1"/>
	<circle style="fill:#C6D1B0;" cx="20" cy="56" r="1"/>
	<circle style="fill:#C6D1B0;" cx="18" cy="54" r="1"/>
	<circle style="fill:#C6D1B0;" cx="14" cy="54" r="1"/>
	<circle style="fill:#C6D1B0;" cx="46" cy="58" r="1"/>
	<circle style="fill:#C6D1B0;" cx="42" cy="58" r="1"/>
	<circle style="fill:#C6D1B0;" cx="44" cy="56" r="1"/>
	<circle style="fill:#C6D1B0;" cx="44" cy="52" r="1"/>
	<circle style="fill:#C6D1B0;" cx="40" cy="52" r="1"/>
	<circle style="fill:#C6D1B0;" cx="42" cy="50" r="1"/>
	<circle style="fill:#C6D1B0;" cx="44" cy="48" r="1"/>
	<circle style="fill:#C6D1B0;" cx="48" cy="56" r="1"/>
	<circle style="fill:#C6D1B0;" cx="40" cy="56" r="1"/>
	<circle style="fill:#C6D1B0;" cx="42" cy="54" r="1"/>
	<circle style="fill:#C6D1B0;" cx="46" cy="54" r="1"/>
</g>
<path style="fill:#596344;" d="M30.118,35l-7,24l-2.892-10.846c-0.674-2.529,0.194-5.218,2.219-6.876L30.118,35"/>
<g>
</g>
<g>
</g>
<g>
</g>
<g>
</g>
<g>
</g>
<g>
</g>
<g>
</g>
<g>
</g>
<g>
</g>
<g>
</g>
<g>
</g>
<g>
</g>
<g>
</g>
<g>
</g>
<g>
</g>
</svg>
